<mxfile host="app.diagrams.net" modified="2023-07-29T16:00:35.916Z" agent="Mozilla/5.0 (Windows NT 10.0; Win64; x64) AppleWebKit/537.36 (KHTML, like Gecko) Chrome/114.0.0.0 YaBrowser/23.7.1.1140 Yowser/2.5 Safari/537.36" etag="XF7HzLC4b1Yynf0086P_" version="21.6.2" type="device">
  <diagram name="Страница 1" id="2hxtaAFZ5cVEmX_KrBm3">
    <mxGraphModel dx="883" dy="486" grid="1" gridSize="10" guides="1" tooltips="1" connect="1" arrows="1" fold="1" page="1" pageScale="1" pageWidth="827" pageHeight="1169" math="0" shadow="0">
      <root>
        <mxCell id="0" />
        <mxCell id="1" parent="0" />
        <mxCell id="KkMhMolhbZkH6IS8zCt4-24" style="edgeStyle=orthogonalEdgeStyle;rounded=0;orthogonalLoop=1;jettySize=auto;html=1;entryX=0;entryY=0.5;entryDx=0;entryDy=0;" edge="1" parent="1" source="KkMhMolhbZkH6IS8zCt4-1" target="KkMhMolhbZkH6IS8zCt4-2">
          <mxGeometry relative="1" as="geometry" />
        </mxCell>
        <mxCell id="KkMhMolhbZkH6IS8zCt4-1" value="binary&lt;br&gt;shift register" style="rounded=0;whiteSpace=wrap;html=1;" vertex="1" parent="1">
          <mxGeometry x="80" y="190" width="150" height="30" as="geometry" />
        </mxCell>
        <mxCell id="KkMhMolhbZkH6IS8zCt4-12" style="edgeStyle=orthogonalEdgeStyle;rounded=0;orthogonalLoop=1;jettySize=auto;html=1;exitX=1;exitY=0.5;exitDx=0;exitDy=0;entryX=0;entryY=0.5;entryDx=0;entryDy=0;" edge="1" parent="1" source="KkMhMolhbZkH6IS8zCt4-2" target="KkMhMolhbZkH6IS8zCt4-3">
          <mxGeometry relative="1" as="geometry" />
        </mxCell>
        <mxCell id="KkMhMolhbZkH6IS8zCt4-25" style="edgeStyle=orthogonalEdgeStyle;rounded=0;orthogonalLoop=1;jettySize=auto;html=1;" edge="1" parent="1" source="KkMhMolhbZkH6IS8zCt4-2">
          <mxGeometry relative="1" as="geometry">
            <mxPoint x="340" y="240" as="targetPoint" />
          </mxGeometry>
        </mxCell>
        <mxCell id="KkMhMolhbZkH6IS8zCt4-2" value="shift regs [3:0]" style="rounded=0;whiteSpace=wrap;html=1;" vertex="1" parent="1">
          <mxGeometry x="280" y="190" width="120" height="30" as="geometry" />
        </mxCell>
        <mxCell id="KkMhMolhbZkH6IS8zCt4-14" style="edgeStyle=orthogonalEdgeStyle;rounded=0;orthogonalLoop=1;jettySize=auto;html=1;entryX=0;entryY=0.5;entryDx=0;entryDy=0;" edge="1" parent="1" source="KkMhMolhbZkH6IS8zCt4-3" target="KkMhMolhbZkH6IS8zCt4-4">
          <mxGeometry relative="1" as="geometry" />
        </mxCell>
        <mxCell id="KkMhMolhbZkH6IS8zCt4-3" value="shift regs [3:0]" style="rounded=0;whiteSpace=wrap;html=1;" vertex="1" parent="1">
          <mxGeometry x="420" y="190" width="120" height="30" as="geometry" />
        </mxCell>
        <mxCell id="KkMhMolhbZkH6IS8zCt4-4" value="shift regs [3:0]" style="rounded=0;whiteSpace=wrap;html=1;" vertex="1" parent="1">
          <mxGeometry x="560" y="190" width="120" height="30" as="geometry" />
        </mxCell>
        <mxCell id="KkMhMolhbZkH6IS8zCt4-5" value="shift regs [3:0]" style="rounded=0;whiteSpace=wrap;html=1;" vertex="1" parent="1">
          <mxGeometry x="270" y="290" width="120" height="80" as="geometry" />
        </mxCell>
        <mxCell id="KkMhMolhbZkH6IS8zCt4-7" value="iclk" style="text;html=1;strokeColor=none;fillColor=none;align=left;verticalAlign=middle;whiteSpace=wrap;rounded=0;" vertex="1" parent="1">
          <mxGeometry x="190" y="290" width="60" height="20" as="geometry" />
        </mxCell>
        <mxCell id="KkMhMolhbZkH6IS8zCt4-8" value="ireset" style="text;html=1;strokeColor=none;fillColor=none;align=left;verticalAlign=middle;whiteSpace=wrap;rounded=0;" vertex="1" parent="1">
          <mxGeometry x="190" y="310" width="60" height="20" as="geometry" />
        </mxCell>
        <mxCell id="KkMhMolhbZkH6IS8zCt4-9" value="ishift" style="text;html=1;strokeColor=none;fillColor=none;align=left;verticalAlign=middle;whiteSpace=wrap;rounded=0;" vertex="1" parent="1">
          <mxGeometry x="190" y="330" width="60" height="20" as="geometry" />
        </mxCell>
        <mxCell id="KkMhMolhbZkH6IS8zCt4-10" value="iadd" style="text;html=1;strokeColor=none;fillColor=none;align=left;verticalAlign=middle;whiteSpace=wrap;rounded=0;" vertex="1" parent="1">
          <mxGeometry x="190" y="350" width="60" height="20" as="geometry" />
        </mxCell>
        <mxCell id="KkMhMolhbZkH6IS8zCt4-11" value="oq" style="text;html=1;strokeColor=none;fillColor=none;align=left;verticalAlign=middle;whiteSpace=wrap;rounded=0;" vertex="1" parent="1">
          <mxGeometry x="410" y="290" width="60" height="20" as="geometry" />
        </mxCell>
        <mxCell id="KkMhMolhbZkH6IS8zCt4-15" value="odigit[3:0]" style="text;html=1;strokeColor=none;fillColor=none;align=left;verticalAlign=middle;whiteSpace=wrap;rounded=0;" vertex="1" parent="1">
          <mxGeometry x="410" y="310" width="60" height="20" as="geometry" />
        </mxCell>
        <mxCell id="KkMhMolhbZkH6IS8zCt4-21" style="edgeStyle=orthogonalEdgeStyle;rounded=0;orthogonalLoop=1;jettySize=auto;html=1;entryX=0.121;entryY=1.05;entryDx=0;entryDy=0;entryPerimeter=0;" edge="1" parent="1" source="KkMhMolhbZkH6IS8zCt4-20" target="KkMhMolhbZkH6IS8zCt4-10">
          <mxGeometry relative="1" as="geometry">
            <Array as="points">
              <mxPoint x="197" y="400" />
            </Array>
          </mxGeometry>
        </mxCell>
        <mxCell id="KkMhMolhbZkH6IS8zCt4-22" style="edgeStyle=orthogonalEdgeStyle;rounded=0;orthogonalLoop=1;jettySize=auto;html=1;entryX=0;entryY=0.5;entryDx=0;entryDy=0;" edge="1" parent="1" source="KkMhMolhbZkH6IS8zCt4-20" target="KkMhMolhbZkH6IS8zCt4-9">
          <mxGeometry relative="1" as="geometry">
            <Array as="points">
              <mxPoint x="130" y="420" />
              <mxPoint x="130" y="340" />
            </Array>
          </mxGeometry>
        </mxCell>
        <mxCell id="KkMhMolhbZkH6IS8zCt4-23" style="edgeStyle=orthogonalEdgeStyle;rounded=0;orthogonalLoop=1;jettySize=auto;html=1;exitX=0;exitY=0.75;exitDx=0;exitDy=0;entryX=0;entryY=0.5;entryDx=0;entryDy=0;" edge="1" parent="1" source="KkMhMolhbZkH6IS8zCt4-20" target="KkMhMolhbZkH6IS8zCt4-8">
          <mxGeometry relative="1" as="geometry">
            <Array as="points">
              <mxPoint x="110" y="440" />
              <mxPoint x="110" y="320" />
            </Array>
          </mxGeometry>
        </mxCell>
        <mxCell id="KkMhMolhbZkH6IS8zCt4-20" value="FSM" style="whiteSpace=wrap;html=1;aspect=fixed;" vertex="1" parent="1">
          <mxGeometry x="540" y="380" width="80" height="80" as="geometry" />
        </mxCell>
        <mxCell id="KkMhMolhbZkH6IS8zCt4-26" value="oq" style="text;html=1;strokeColor=none;fillColor=none;align=left;verticalAlign=middle;whiteSpace=wrap;rounded=0;" vertex="1" parent="1">
          <mxGeometry x="400" y="180" width="60" height="20" as="geometry" />
        </mxCell>
        <mxCell id="KkMhMolhbZkH6IS8zCt4-27" value="odigit[3:0]" style="text;html=1;strokeColor=none;fillColor=none;align=left;verticalAlign=middle;whiteSpace=wrap;rounded=0;" vertex="1" parent="1">
          <mxGeometry x="320" y="240" width="60" height="20" as="geometry" />
        </mxCell>
        <mxCell id="KkMhMolhbZkH6IS8zCt4-28" value="0" style="text;html=1;strokeColor=none;fillColor=none;align=center;verticalAlign=middle;whiteSpace=wrap;rounded=0;" vertex="1" parent="1">
          <mxGeometry x="300" y="160" width="60" height="30" as="geometry" />
        </mxCell>
        <mxCell id="KkMhMolhbZkH6IS8zCt4-29" value="1" style="text;html=1;strokeColor=none;fillColor=none;align=center;verticalAlign=middle;whiteSpace=wrap;rounded=0;" vertex="1" parent="1">
          <mxGeometry x="420" y="160" width="60" height="30" as="geometry" />
        </mxCell>
        <mxCell id="KkMhMolhbZkH6IS8zCt4-30" value="2" style="text;html=1;strokeColor=none;fillColor=none;align=center;verticalAlign=middle;whiteSpace=wrap;rounded=0;" vertex="1" parent="1">
          <mxGeometry x="560" y="160" width="60" height="30" as="geometry" />
        </mxCell>
      </root>
    </mxGraphModel>
  </diagram>
</mxfile>
